<?xml version="1.0" encoding="UTF-8"?>
    <!DOCTYPE svg PUBLIC "-//W3C//DTD SVG 1.1//EN" "http://www.w3.org/Graphics/SVG/1.1/DTD/svg11.dtd">
    <svg xmlns="http://www.w3.org/2000/svg" xmlns:xlink="http://www.w3.org/1999/xlink" version="1.1" width="62px" height="122px" viewBox="-0.5 -0.5 62 122">
      <defs />
      <g>
        <path d="M 20 40 L 20 0" fill="none" stroke="#3ecad4" stroke-width="2" stroke-miterlimit="10" pointer-events="stroke" />
        <path d="M 40 40 L 40 0" fill="none" stroke="#3ecad4" stroke-width="2" stroke-miterlimit="10" pointer-events="stroke" />
        <path d="M 20 0 L 40 0" fill="none" stroke="#3ecad4" stroke-width="2" stroke-miterlimit="10" pointer-events="stroke" />
        <path d="M 0 120 L 60 120" fill="none" stroke="#3ecad4" stroke-width="2" stroke-miterlimit="10" pointer-events="stroke" />
        <path d="M 0 120 L 0 70" fill="none" stroke="#3ecad4" stroke-width="2" stroke-miterlimit="10" pointer-events="stroke" />
        <path d="M 60 120 L 60 70" fill="none" stroke="#3ecad4" stroke-width="2" stroke-miterlimit="10" pointer-events="stroke" />
        <path d="M 0 70 L 20 40" fill="none" stroke="#3ecad4" stroke-width="2" stroke-miterlimit="10" pointer-events="stroke" />
        <path d="M 60 70 L 40 40" fill="none" stroke="#3ecad4" stroke-width="2" stroke-miterlimit="10" pointer-events="stroke" />
        <path d="M 0 110 L 40 110 Q 50 110 50 105 L 50 102.5 Q 50 100 40 100 L 20 100 Q 10 100 10 95 L 10 92.5 Q 10 90 20 90 L 40 90 Q 50 90 50 85 L 50 82.5 Q 50 80 40 80 L 20 80 Q 10 80 10 75 L 10 72.5 Q 10 70 20 70 L 30 70 Q 40 70 50 70 L 60 70" fill="none" stroke="#3ecad4" stroke-width="2" stroke-miterlimit="10" pointer-events="stroke" />
      </g>
    </svg>